<svg width="124" height="32" viewBox="0 0 124 32" fill="none" xmlns="http://www.w3.org/2000/svg">
<path fill-rule="evenodd" clip-rule="evenodd" d="M7.26384 11.2566C3.31899 17.4467 0.0801752 22.5435 0.0665027 22.5829C0.050813 22.6281 1.52894 22.6535 4.06365 22.6516L8.08568 22.6486L9.20638 20.6891L10.3271 18.7295H14.6589H18.9906L19.3603 20.6921L19.73 22.6546H23.5305H27.3311L27.2833 22.4116C27.257 22.2779 26.0527 17.1894 24.607 11.1037L21.9786 0.0387277L18.2074 0.0202605L14.4363 0.00186862L7.26384 11.2566ZM33.9738 0.02071C33.9738 0.0314011 32.9651 5.08599 31.7324 11.2532C30.4996 17.4204 29.491 22.5087 29.491 22.5605C29.491 22.6348 30.2196 22.6546 32.9541 22.6546H36.4174L37.4106 17.6642C37.9568 14.9194 38.4264 12.6478 38.454 12.6162C38.4816 12.5846 39.2787 14.3677 40.2251 16.5787L41.9461 20.5986H43.6528H45.3594L48.5014 16.5137C50.2295 14.267 51.653 12.4536 51.6645 12.484C51.6762 12.5143 51.2476 14.7898 50.7119 17.5406C50.1764 20.2913 49.7382 22.5673 49.7382 22.5982C49.7382 22.6293 51.3009 22.6546 53.2109 22.6546H56.6837L56.7215 22.4864C56.7423 22.3939 57.7348 17.3558 58.9271 11.2906C60.1194 5.22543 61.1084 0.204104 61.1251 0.132182C61.1535 0.00912151 60.9617 0.00134614 57.8935 0.00134614H54.6318L49.8901 6.01904C47.0515 9.62158 45.1293 11.9995 45.1007 11.944C45.0745 11.893 43.9647 9.18503 42.6346 5.92633L40.216 0.00134614H37.0949C35.3783 0.00134614 33.9738 0.0100936 33.9738 0.02071ZM65.1348 0.393853C65.091 0.609694 64.0674 5.70675 62.8602 11.7205L60.6653 22.6546H70.107C75.2999 22.6546 79.5487 22.6414 79.5487 22.6253C79.5487 22.6091 79.8009 21.3618 80.1091 19.8534C80.4173 18.3451 80.6694 17.0631 80.6694 17.0044C80.6694 16.9131 79.8568 16.8978 74.9898 16.8978H69.3102L69.35 16.7296C69.397 16.5313 69.9107 13.9682 69.9107 13.932C69.9107 13.9184 72.0793 13.9073 74.7297 13.9073C77.3802 13.9073 79.5487 13.8975 79.5487 13.8856C79.5487 13.8737 79.7841 12.689 80.0717 11.2532C80.3594 9.81738 80.5947 8.59912 80.5947 8.54603C80.5947 8.46828 79.6762 8.44959 75.8548 8.44959C73.2479 8.44959 71.1006 8.42439 71.0831 8.39352C71.0552 8.3447 71.2172 7.43759 71.4837 6.15107L71.5648 5.75909L77.029 5.73987L82.4933 5.72073L83.0254 3.10402C83.3182 1.66483 83.5793 0.378003 83.6059 0.244327L83.6542 0.00134614H74.4343H65.2144L65.1348 0.393853ZM87.1695 0.02071C87.1695 0.0314011 86.1608 5.08599 84.9281 11.2532C83.6953 17.4204 82.6867 22.5087 82.6867 22.5605C82.6867 22.6349 83.4676 22.6546 86.4173 22.6546C89.9057 22.6546 90.1504 22.6461 90.1866 22.5238C90.2078 22.4518 90.3261 21.8715 90.4494 21.2341C91.0453 18.1535 93.3746 6.22366 93.409 6.07586L93.4482 5.90764H98.3725H103.297L103.376 5.51513C103.677 4.03101 104.428 0.155208 104.428 0.0859772C104.428 0.0234752 102.172 0.00134614 95.7988 0.00134614C91.0527 0.00134614 87.1695 0.0100936 87.1695 0.02071ZM103.922 11.2802C99.9679 17.4843 96.7327 22.5819 96.7327 22.6082C96.7327 22.6344 98.5399 22.6472 100.749 22.6366L104.764 22.6172L105.748 20.8977C106.289 19.9519 106.802 19.0685 106.888 18.9345L107.045 18.691L111.352 18.7102L115.659 18.7295L115.824 19.5893C115.915 20.0622 116.082 20.9454 116.195 21.5518L116.4 22.6546H120.202C122.292 22.6546 124.002 22.6294 124 22.5985C123.998 22.5676 122.795 17.4791 121.325 11.2906L118.653 0.0387277L114.882 0.0193639L111.111 0L103.922 11.2802ZM17.3395 10.1505C17.6186 11.6205 17.8652 12.9158 17.8874 13.0288L17.9279 13.2344H15.7089C14.2977 13.2344 13.499 13.2078 13.5149 13.1614C13.5672 13.0081 16.7544 7.48342 16.7922 7.48066C16.8141 7.47901 17.0604 8.68038 17.3395 10.1505ZM114.023 10.2254C114.307 11.7364 114.555 13.0317 114.573 13.1036C114.604 13.226 114.464 13.2344 112.388 13.2344C110.974 13.2344 110.178 13.2079 110.194 13.1613C110.244 13.0128 113.432 7.48156 113.468 7.47976C113.489 7.47871 113.738 8.71425 114.023 10.2254ZM34.5466 26.1436C34.4418 26.2484 34.5033 26.6801 34.6495 26.8661C35.0057 27.3191 36.3143 27.3338 36.8038 26.8902C37.007 26.7062 37.2127 26.2715 37.147 26.1652C37.1228 26.1259 36.9192 26.0937 36.6948 26.0937C36.331 26.0937 36.2773 26.1142 36.2007 26.2824C36.0456 26.6231 35.5687 26.6327 35.4085 26.2984C35.3219 26.1176 35.2688 26.0937 34.9534 26.0937C34.757 26.0937 34.5739 26.1161 34.5466 26.1436ZM88.7883 26.1436C88.6835 26.2484 88.745 26.6801 88.8912 26.8661C89.2474 27.3191 90.556 27.3338 91.0455 26.8902C91.2486 26.7062 91.4544 26.2715 91.3887 26.1652C91.3644 26.1259 91.1608 26.0937 90.9362 26.0937C90.5706 26.0937 90.5205 26.1131 90.4576 26.2785C90.328 26.6196 89.8101 26.6323 89.6502 26.2984C89.5636 26.1176 89.5105 26.0937 89.1951 26.0937C88.9987 26.0937 88.8156 26.1161 88.7883 26.1436ZM43.0639 27.265C43.0364 27.2924 43.014 27.3879 43.014 27.4774C43.014 27.6195 42.9496 27.6513 42.4984 27.732C41.153 27.9726 40.3277 28.771 40.3277 29.8319C40.3277 30.2727 40.5051 30.755 40.7461 30.9692C40.9527 31.1527 41.5107 31.3867 41.8841 31.4465C42.2008 31.4971 42.2043 31.501 42.1577 31.7489L42.1107 32H42.7757H43.4407L43.5104 31.757C43.5753 31.5304 43.6077 31.5106 43.9918 31.4625C45.352 31.2924 46.2313 30.4316 46.2251 29.2762C46.2206 28.4571 45.6897 27.9552 44.5643 27.7063C44.3963 27.6692 44.3589 27.6203 44.3589 27.438V27.2152H43.7363C43.3938 27.2152 43.0912 27.2376 43.0639 27.265ZM73.562 27.4817C72.7857 27.7209 72.1067 28.3796 71.8926 29.1011C71.6019 30.0805 71.8564 30.9868 72.554 31.4569C73.0398 31.7843 73.417 31.8725 74.1694 31.8348C74.8787 31.7993 75.3111 31.641 75.7383 31.2602L75.9998 31.0272L75.5538 30.6188C75.1155 30.2176 75.1052 30.2129 74.9561 30.3483C74.6997 30.5812 74.4938 30.6543 74.0938 30.6543C73.7688 30.6543 73.676 30.6206 73.4912 30.4357C73.3068 30.2512 73.2728 30.1577 73.2728 29.8352C73.2728 29.6251 73.3191 29.3422 73.3759 29.2065C73.6583 28.5299 74.6121 28.3158 75.1303 28.8127L75.3275 29.0017L75.8131 28.6247C76.0802 28.4174 76.3132 28.2336 76.331 28.2163C76.4165 28.1329 75.8123 27.6462 75.4592 27.5141C74.9821 27.3354 74.0863 27.3201 73.562 27.4817ZM106.468 27.4997C105.473 27.8545 104.863 28.624 104.755 29.6619C104.664 30.5315 105.035 31.2385 105.796 31.6455C106.066 31.79 106.223 31.8131 106.931 31.8131C107.681 31.8131 107.794 31.794 108.224 31.5956C109.101 31.19 109.658 30.3264 109.658 29.3705C109.658 28.5006 109.357 27.9688 108.661 27.6097C108.142 27.3424 107.061 27.2882 106.468 27.4997ZM0.839932 27.5329C0.822748 27.5843 0.636862 28.5011 0.426844 29.5702C0.216825 30.6393 0.0279508 31.573 0.00710582 31.6449C-0.0271128 31.7632 0.0399795 31.7757 0.711202 31.7757H1.4531L1.57974 31.1215C1.76503 30.164 1.75046 30.1938 2.02159 30.2201C2.25037 30.2423 2.26658 30.268 2.51888 31.0094L2.77963 31.7757H3.54619C3.96772 31.7757 4.31267 31.7609 4.31267 31.7428C4.31267 31.7247 4.12835 31.2305 3.90317 30.6444C3.5559 29.7411 3.50868 29.5611 3.59251 29.4624C3.73828 29.2907 5.07542 27.6421 5.15738 27.5329C5.21244 27.4596 5.05293 27.44 4.41518 27.4418L3.6029 27.4441L2.97815 28.2642C2.40136 29.0213 2.16198 29.2169 2.04461 29.0268C2.02511 28.9952 2.07225 28.6672 2.14935 28.2979C2.22646 27.9285 2.29086 27.5843 2.2925 27.5329C2.2946 27.4645 2.10475 27.4394 1.58333 27.4394C1.08006 27.4394 0.862047 27.4669 0.839932 27.5329ZM6.30078 28.3553C6.18416 28.859 6.02225 29.4871 5.94089 29.751C5.78317 30.2633 5.47237 30.6543 5.2229 30.6543C5.10343 30.6543 5.04807 30.7564 4.9292 31.1963C4.75968 31.8233 4.77455 31.8476 5.32884 31.8493C6.40755 31.8526 6.86151 31.3141 7.31255 29.4966L7.54476 28.5609H8.02068C8.28247 28.5609 8.4966 28.5885 8.4966 28.6223C8.4966 28.656 8.36212 29.3517 8.19775 30.1683C8.03338 30.9849 7.8989 31.6806 7.8989 31.7143C7.8989 31.7481 8.21762 31.7757 8.60725 31.7757C9.28012 31.7757 9.31762 31.7673 9.35573 31.6075C9.37777 31.515 9.57538 30.5393 9.79474 29.4394L10.1937 27.4394H8.3533H6.51289L6.30078 28.3553ZM10.8874 27.4684C10.8874 27.4843 11.106 28.121 11.3731 28.8832C11.6402 29.6455 11.8587 30.3213 11.8587 30.385C11.8587 30.5474 11.4727 30.729 11.1275 30.729C10.843 30.729 10.8332 30.7382 10.6376 31.192C10.4994 31.5125 10.4619 31.6788 10.5156 31.7326C10.5584 31.7754 10.8388 31.8228 11.1387 31.838C11.8265 31.8728 12.2869 31.6914 12.7782 31.1922C13.1102 30.8547 15.5147 27.6105 15.518 27.4955C15.5189 27.4646 15.2087 27.4397 14.8285 27.4399L14.1374 27.4403L13.5434 28.2997C13.2166 28.7723 12.9277 29.159 12.9014 29.159C12.875 29.159 12.779 28.8815 12.6882 28.5422C12.5972 28.2029 12.4884 27.8161 12.4465 27.6824L12.3701 27.4394H11.6287C11.221 27.4394 10.8874 27.4525 10.8874 27.4684ZM16.1548 27.6077C16.1327 27.7001 15.9351 28.6759 15.7158 29.7758L15.3168 31.7757H16.6727C18.6336 31.7757 19.2108 31.5845 19.6102 30.8023C19.8144 30.4024 19.8203 30.1185 19.6328 29.7054C19.4223 29.2414 19.0668 29.0863 18.0856 29.0307C17.3356 28.9882 17.3032 28.9795 17.3434 28.8297C17.3665 28.7435 17.3859 28.6487 17.3864 28.6188C17.387 28.5891 17.9145 28.5554 18.5586 28.5441L19.7298 28.5235L19.8256 28.1123C19.9982 27.3713 20.1767 27.4394 18.0613 27.4394H16.1949L16.1548 27.6077ZM21.1231 27.464C21.1231 27.4775 20.9382 28.3871 20.7122 29.4853C20.4862 30.5835 20.3013 31.5482 20.3013 31.6289C20.3013 31.7644 20.3554 31.7757 21.0051 31.7757H21.7089L21.8218 31.2711C21.8838 30.9935 21.9576 30.6403 21.9855 30.486L22.0363 30.2057H22.7004C23.0656 30.2057 23.3645 30.2372 23.3645 30.2756C23.3645 30.341 23.1882 31.2349 23.1018 31.6075C23.0633 31.7733 23.0733 31.7757 23.8114 31.7757C24.223 31.7757 24.56 31.7505 24.5601 31.7196C24.5601 31.6888 24.745 30.759 24.971 29.6535C25.1969 28.5479 25.3818 27.5975 25.3818 27.5414C25.3818 27.4625 25.2218 27.4394 24.6734 27.4394H23.965L23.9137 27.6442C23.8854 27.7569 23.8091 28.1018 23.7441 28.4105L23.6259 28.9721L22.9722 28.9937C22.2218 29.0185 22.2546 29.0628 22.4306 28.2618C22.6207 27.3967 22.6518 27.4394 21.8329 27.4394C21.4425 27.4394 21.1231 27.4505 21.1231 27.464ZM26.4628 27.5329C26.4314 27.6167 25.6059 31.6889 25.6059 31.7599C25.6059 31.776 26.2699 31.7778 27.0815 31.7638C28.5516 31.7384 28.5587 31.7375 29.0053 31.5126C29.8345 31.0951 30.2123 30.1898 29.8752 29.4275C29.6589 28.9381 29.313 28.789 28.389 28.7868C27.562 28.7849 27.5995 28.873 27.8867 27.6077C27.9242 27.4423 27.9128 27.4394 27.2113 27.4394C26.709 27.4394 26.4874 27.4671 26.4628 27.5329ZM30.5875 29.5141C30.3541 30.6552 30.1632 31.6321 30.1632 31.6849C30.1634 31.7581 30.3356 31.776 30.8845 31.7597L31.6056 31.7383L32.0397 29.6076C32.2784 28.4357 32.4749 27.4685 32.4766 27.4581C32.4781 27.4478 32.1493 27.4394 31.7457 27.4394H31.0121L30.5875 29.5141ZM33.0813 29.4767C32.8595 30.5972 32.663 31.573 32.6448 31.6449C32.6148 31.7626 32.6823 31.7757 33.3196 31.7757H34.0276L34.9532 30.6984C35.4624 30.1059 35.8901 29.6515 35.9037 29.6885C35.9173 29.7256 35.8416 30.1602 35.7356 30.6543C35.6295 31.1484 35.5427 31.6029 35.5427 31.6642C35.5427 31.7551 35.672 31.7757 36.2415 31.7757H36.9404L37.3623 29.6636C37.5943 28.502 37.7842 27.5264 37.7841 27.4955C37.7841 27.4646 37.4731 27.4397 37.093 27.44L36.4019 27.4404L35.4743 28.524C34.9641 29.12 34.5352 29.5963 34.5213 29.5823C34.4963 29.5573 34.8348 27.8224 34.914 27.5703C34.9512 27.4518 34.8859 27.4394 34.2199 27.4394H33.4846L33.0813 29.4767ZM47.0221 29.5515C46.79 30.7132 46.6002 31.6888 46.6003 31.7196C46.6003 31.7505 47.4065 31.7757 48.392 31.7757H50.1836L50.2218 31.6075C50.3297 31.1322 50.4072 30.7604 50.4088 30.7103C50.4098 30.6795 49.9192 30.6543 49.3185 30.6543H48.2265L48.2716 30.486C48.2963 30.3936 48.3171 30.2758 48.3176 30.2244C48.3184 30.1547 48.5548 30.1309 49.2473 30.1309H50.1759L50.2603 29.701C50.3068 29.4646 50.3585 29.2291 50.3754 29.1777C50.3987 29.1064 50.1961 29.0842 49.5242 29.0842C49.0392 29.0842 48.6258 29.0676 48.6055 29.0473C48.5852 29.027 48.5832 28.9101 48.6012 28.7876L48.6339 28.5649L49.6899 28.5442L50.7459 28.5235L50.8326 28.1497C50.8803 27.9441 50.9225 27.7001 50.9264 27.6077L50.9336 27.4394H49.1888H47.444L47.0221 29.5515ZM51.8677 27.6077C51.7462 28.1182 51.083 31.5266 51.083 31.6406C51.083 31.7614 51.158 31.7757 51.7875 31.7757H52.492L52.5764 31.3458C52.6229 31.1093 52.6726 30.879 52.6871 30.8338C52.7022 30.7864 53.0077 30.7331 53.4111 30.7076C54.5476 30.6357 55.1622 30.3248 55.4844 29.6588C55.6966 29.2201 55.6969 28.5422 55.485 28.1943C55.1051 27.5708 54.688 27.4394 53.0882 27.4394C51.9257 27.4394 51.9071 27.442 51.8677 27.6077ZM56.7612 27.4713C56.7612 27.4922 56.5763 28.4229 56.3503 29.5395C56.1243 30.6562 55.9394 31.6175 55.9394 31.6757C55.9394 31.7605 56.069 31.7773 56.5931 31.7599L57.2469 31.7383L57.4425 30.8038L57.6383 29.8692L57.8408 30.3178C57.9523 30.5645 58.107 30.9114 58.1846 31.0886C58.3224 31.4033 58.333 31.4102 58.6454 31.3876C58.9531 31.3654 58.986 31.3374 59.5255 30.6395C59.8337 30.2407 60.0969 29.9454 60.1102 29.9831C60.1235 30.0209 60.0646 30.3939 59.9794 30.8121C59.8942 31.2302 59.8245 31.6193 59.8245 31.6769C59.8245 31.7602 59.9575 31.7771 60.4782 31.7599L61.132 31.7383L61.5099 29.8319C61.7178 28.7833 61.9102 27.8161 61.9377 27.6824L61.9874 27.4394H61.36H60.7325L59.8494 28.5609C59.3638 29.1777 58.948 29.6823 58.9256 29.6823C58.9032 29.6823 58.6825 29.1861 58.4351 28.5796L57.9853 27.4768L57.3733 27.4551C57.0366 27.4432 56.7612 27.4504 56.7612 27.4713ZM63.0371 27.4619C63.0371 27.4744 62.8522 28.4063 62.6262 29.5328C62.4002 30.6593 62.2153 31.6249 62.2153 31.6784C62.2153 31.7556 62.585 31.7757 64.0031 31.7757H65.7909L65.8761 31.3458C65.9229 31.1093 65.9673 30.8655 65.9747 30.8038C65.9861 30.7096 65.8183 30.6884 64.9236 30.6709C63.8059 30.6491 63.8118 30.6513 63.906 30.2991C63.9497 30.1363 63.9805 30.1309 64.8636 30.1309H65.7761L65.8884 29.6076L66.0007 29.0842H65.121C64.6372 29.0842 64.2257 29.0588 64.2065 29.0277C64.1873 28.9967 64.1891 28.8798 64.2104 28.7681L64.2492 28.5649L65.3 28.5442L66.3507 28.5235L66.4465 28.1123C66.6188 27.3727 66.7829 27.4394 64.7929 27.4394C63.8272 27.4394 63.0371 27.4496 63.0371 27.4619ZM67.484 27.6077C67.4626 27.7001 67.2774 28.6001 67.0724 29.6076C66.8674 30.615 66.6819 31.515 66.6601 31.6075C66.621 31.7733 66.631 31.7757 67.3657 31.7757H68.1108L68.1589 31.4953C68.1854 31.3412 68.231 31.1141 68.2602 30.9907L68.3134 30.7664L69.0474 30.7183C69.6786 30.6768 69.8502 30.6349 70.2728 30.4192C70.8799 30.1092 71.1881 29.6734 71.2396 29.0519C71.2841 28.5145 71.1548 28.1656 70.7975 27.8596C70.3896 27.5102 70.0333 27.4394 68.6836 27.4394C67.5411 27.4394 67.5222 27.4421 67.484 27.6077ZM77.382 27.4619C77.382 27.4744 77.1971 28.4063 76.9711 29.5328C76.7451 30.6593 76.5602 31.6249 76.5602 31.6784C76.5602 31.7514 76.7361 31.7757 77.265 31.7757C77.8718 31.7757 77.975 31.7575 78.0078 31.6449C78.0287 31.573 78.1028 31.2197 78.1724 30.8599L78.2991 30.2057H78.5441C78.7885 30.2057 78.7898 30.2078 79.0443 30.972L79.2993 31.7383L80.0591 31.7596C80.477 31.7714 80.8188 31.7512 80.8188 31.7149C80.8188 31.6785 80.6507 31.2079 80.4453 30.6689C80.2398 30.1299 80.0717 29.6513 80.0717 29.6052C80.0717 29.5591 80.4415 29.0723 80.8936 28.5235C81.3456 27.9747 81.7154 27.5062 81.7154 27.4825C81.7154 27.4588 81.3653 27.4394 80.9373 27.4394H80.1593L79.5331 28.2431C79.1282 28.7627 78.8486 29.0553 78.7421 29.0708C78.5363 29.1006 78.5337 28.9857 78.72 28.0936L78.8567 27.4394H78.1193C77.7138 27.4394 77.382 27.4496 77.382 27.4619ZM82.3494 27.5329C82.3188 27.618 81.4913 31.682 81.4913 31.7475C81.4913 31.7631 81.8072 31.7757 82.1933 31.7757H82.8954L83.837 30.6874C84.3549 30.0888 84.7786 29.652 84.7786 29.7167C84.7786 29.7815 84.6946 30.2234 84.5919 30.6989C84.4891 31.1744 84.4051 31.6112 84.4051 31.6695C84.4051 31.7538 84.5515 31.7757 85.1148 31.7757C85.5052 31.7757 85.8247 31.7505 85.8248 31.7196C85.8248 31.6888 86.0098 30.7622 86.2357 29.6606C86.4616 28.5589 86.6465 27.6086 86.6465 27.5485C86.6465 27.4606 86.5124 27.4399 85.9554 27.4419L85.2643 27.4445L84.3377 28.5271C83.8281 29.1225 83.3982 29.597 83.3826 29.5813C83.3596 29.5583 83.5911 28.3821 83.7711 27.6077C83.8095 27.4422 83.7984 27.4394 83.0967 27.4394C82.5936 27.4394 82.3732 27.467 82.3494 27.5329ZM87.7275 27.5329C87.698 27.6116 86.8706 31.6867 86.8706 31.7532C86.8706 31.7655 87.185 31.7757 87.5693 31.7757H88.268L89.213 30.6854C89.7327 30.0857 90.158 29.6456 90.158 29.7075C90.158 29.7693 90.0739 30.2089 89.9712 30.6844C89.8685 31.1599 89.7844 31.5999 89.7844 31.6623C89.7844 31.7556 89.9084 31.7757 90.4832 31.7757H91.1821L91.604 29.6636C91.836 28.502 92.0259 27.5264 92.0258 27.4955C92.0258 27.4646 91.7149 27.4397 91.3347 27.44L90.6436 27.4404L89.716 28.524C89.2058 29.12 88.7762 29.5955 88.7614 29.5807C88.7368 29.5561 89.0687 27.8744 89.1582 27.5703C89.1931 27.4521 89.1275 27.4394 88.4796 27.4394C87.9743 27.4394 87.7521 27.467 87.7275 27.5329ZM95.2385 27.4619C95.2385 27.4744 95.0536 28.4063 94.8275 29.5328C94.6015 30.6593 94.4166 31.6249 94.4166 31.6784C94.4166 31.7514 94.5923 31.7757 95.1205 31.7757H95.8243L95.8647 31.5701C95.8869 31.457 96.0289 30.7337 96.1803 29.9627L96.4555 28.5609H97.1171C97.481 28.5609 97.7787 28.5717 97.7787 28.5849C97.7787 28.598 97.6442 29.277 97.4799 30.0935C97.3155 30.9101 97.181 31.6227 97.181 31.6769C97.181 31.7519 97.3525 31.7757 97.8908 31.7757C98.2812 31.7757 98.6006 31.7655 98.6006 31.7532C98.6006 31.7408 98.7855 30.8089 99.0115 29.6823C99.2375 28.5558 99.4224 27.5902 99.4224 27.5367C99.4224 27.4592 98.9983 27.4394 97.3304 27.4394C96.1798 27.4394 95.2385 27.4496 95.2385 27.4619ZM100.468 27.4559C100.468 27.4717 100.283 28.4063 100.057 29.5328C99.8315 30.6593 99.6465 31.6249 99.6465 31.6784C99.6465 31.7514 99.8224 31.7757 100.351 31.7757C101.123 31.7757 101.076 31.8058 101.178 31.2524C101.275 30.728 101.239 30.7526 101.983 30.7072C102.831 30.6555 103.138 30.5675 103.548 30.2577C104.028 29.8958 104.219 29.4682 104.189 28.8223C104.16 28.184 103.99 27.9054 103.475 27.6515C103.152 27.4921 103.005 27.4747 101.795 27.4521C101.065 27.4385 100.468 27.4402 100.468 27.4559ZM110.891 27.6077C110.869 27.7001 110.671 28.6759 110.452 29.7758L110.053 31.7757H111.862H113.672L113.757 31.352C113.908 30.5984 113.985 30.6543 112.796 30.6543C111.815 30.6543 111.75 30.6454 111.75 30.5109C111.75 30.1456 111.788 30.1309 112.731 30.1309C113.739 30.1309 113.698 30.1576 113.807 29.4326L113.859 29.0842H112.996C112.521 29.0842 112.113 29.0522 112.088 29.0129C112.064 28.9737 112.066 28.8568 112.092 28.7533L112.139 28.5649L113.193 28.5442L114.247 28.5235L114.34 28.0749C114.391 27.8282 114.435 27.5843 114.436 27.5329C114.439 27.4607 114.041 27.4394 112.685 27.4394H110.931L110.891 27.6077ZM115.411 27.4619C115.411 27.4744 115.226 28.4063 115 29.5328C114.774 30.6593 114.589 31.6249 114.589 31.6784C114.589 31.7514 114.765 31.7757 115.294 31.7757C115.901 31.7757 116.004 31.7575 116.037 31.6449C116.058 31.573 116.132 31.2197 116.201 30.8599L116.328 30.2057H116.573C116.817 30.2057 116.819 30.2078 117.073 30.972L117.328 31.7383L118.088 31.7596C118.506 31.7714 118.848 31.7512 118.848 31.7149C118.848 31.6785 118.68 31.2079 118.474 30.6689C118.269 30.1299 118.101 29.6513 118.101 29.6052C118.101 29.5591 118.47 29.0723 118.923 28.5235C119.375 27.9747 119.744 27.5062 119.744 27.4825C119.744 27.4588 119.393 27.4394 118.964 27.4394H118.183L117.559 28.2431C117.156 28.7613 116.876 29.0554 116.77 29.0708C116.565 29.1006 116.563 28.985 116.749 28.0936L116.886 27.4394H116.148C115.743 27.4394 115.411 27.4496 115.411 27.4619ZM120.008 27.6077C119.9 28.0829 119.823 28.4547 119.821 28.5048C119.82 28.5357 120.088 28.5609 120.417 28.5609C120.936 28.5609 121.014 28.578 121.014 28.6917C121.014 28.7636 120.885 29.4871 120.727 30.2991L120.441 31.7757H121.16H121.879L122.164 30.2991C122.32 29.4871 122.464 28.765 122.483 28.6946C122.511 28.5885 122.628 28.5629 123.164 28.545L123.81 28.5235L123.903 28.0749C123.955 27.8282 123.998 27.5843 124 27.5329C124.002 27.4604 123.559 27.4394 122.025 27.4394H120.046L120.008 27.6077ZM107.968 28.7869C108.156 28.9676 108.183 29.0483 108.18 29.405C108.176 29.8786 108.041 30.1817 107.712 30.4585C107.396 30.7253 106.775 30.7379 106.48 30.4836C106.217 30.2575 106.151 29.7388 106.326 29.2794C106.475 28.8896 106.638 28.7298 107.02 28.5975C107.392 28.4683 107.702 28.5302 107.968 28.7869ZM54.0289 28.6783C54.1972 28.8469 54.178 29.2566 53.9941 29.4232C53.7986 29.6003 52.9499 29.6817 52.9527 29.5231C52.9547 29.4125 53.0833 28.8072 53.1373 28.6543C53.1867 28.5145 53.8839 28.5333 54.0289 28.6783ZM69.5952 28.6773C69.7096 28.7574 69.7613 28.8702 69.7613 29.0395C69.7613 29.397 69.5481 29.5544 69.0114 29.5933C68.5053 29.6299 68.5173 29.6503 68.6509 28.9846L68.7359 28.5609H69.0826C69.2754 28.5609 69.5029 28.6126 69.5952 28.6773ZM102.635 28.7104C102.717 28.7927 102.784 28.9088 102.784 28.9686C102.784 29.1991 102.605 29.4539 102.389 29.5291C102.168 29.6063 101.514 29.6397 101.514 29.5739C101.514 29.5176 101.672 28.7544 101.704 28.6543C101.756 28.4932 102.46 28.5355 102.635 28.7104ZM42.6031 29.5488C42.5307 29.9306 42.4441 30.2731 42.4107 30.3099C42.3052 30.426 41.911 30.2047 41.8165 29.9762C41.6997 29.694 41.7772 29.2983 41.9879 29.1023C42.1391 28.9615 42.6367 28.7737 42.7063 28.8312C42.722 28.844 42.6755 29.167 42.6031 29.5488ZM44.7247 29.2788C44.8176 29.5434 44.8148 29.6061 44.7002 29.8477C44.5701 30.1222 44.2154 30.3552 43.9276 30.3552C43.7817 30.3552 43.7817 30.3494 43.9209 29.6636C44.1131 28.7171 44.0853 28.7647 44.3756 28.8824C44.5563 28.9556 44.6477 29.0595 44.7247 29.2788ZM28.441 29.974C28.5383 30.1559 28.408 30.554 28.2179 30.6558C28.1428 30.6961 27.8902 30.729 27.6567 30.729C27.2526 30.729 27.2343 30.721 27.2783 30.5608C27.3036 30.4683 27.3454 30.2665 27.3712 30.1122L27.4181 29.8319H27.8916C28.2804 29.8319 28.3786 29.8573 28.441 29.974ZM18.1666 30.1736C18.3158 30.3229 18.314 30.3764 18.1533 30.5749C18.038 30.7173 17.9604 30.7337 17.4969 30.714L16.9713 30.6916L17.0344 30.3739L17.0974 30.0562H17.5733C17.9063 30.0562 18.0845 30.0914 18.1666 30.1736Z" fill="#323232"/>
</svg>
