<svg width="23" height="22" viewBox="0 0 23 22" fill="none" xmlns="http://www.w3.org/2000/svg">
<path fill-rule="evenodd" clip-rule="evenodd" d="M17.1549 16.5C18.8613 16.5 20.2487 15.1112 20.2487 13.4062V11C20.2487 6.45012 16.5485 2.75 11.9987 2.75C7.44878 2.75 3.74866 6.45012 3.74866 11C3.74866 15.5499 7.44878 19.25 11.9987 19.25C12.5679 19.25 13.0299 18.788 13.0299 18.2187C13.0299 17.6495 12.5679 17.1875 11.9987 17.1875C8.58728 17.1875 5.81116 14.4114 5.81116 11C5.81116 7.58862 8.58728 4.8125 11.9987 4.8125C15.41 4.8125 18.1862 7.58862 18.1862 11V13.4062C18.1862 13.9741 17.7242 14.4375 17.1549 14.4375C16.5857 14.4375 16.1237 13.9741 16.1237 13.4062V11C16.1237 8.72575 14.2729 6.875 11.9987 6.875C9.72441 6.875 7.87366 8.72575 7.87366 11C7.87366 13.2742 9.72441 15.125 11.9987 15.125C12.8319 15.125 13.6047 14.872 14.2537 14.4471C14.684 15.6392 15.8157 16.5 17.1549 16.5ZM11.9664 13.0625C13.0877 13.0625 13.9967 12.1247 13.9967 10.9678C13.9967 9.81089 13.0877 8.87304 11.9664 8.87304C10.8451 8.87304 9.93616 9.81089 9.93616 10.9678C9.93616 12.1247 10.8451 13.0625 11.9664 13.0625Z" fill="#323232"/>
</svg>
