<svg width="23" height="22" viewBox="0 0 23 22" fill="none" xmlns="http://www.w3.org/2000/svg">
<path d="M4.28126 10.7129L7.96799 12.0958L9.39498 16.7078C9.48628 17.0032 9.8457 17.1124 10.0843 16.9164L12.1393 15.2327C12.3547 15.0563 12.6615 15.0475 12.8867 15.2118L16.5932 17.9162C16.8484 18.1026 17.21 17.9621 17.274 17.6522L19.9892 4.52631C20.0591 4.18778 19.7281 3.90537 19.4074 4.03004L4.27694 9.89594C3.90356 10.0407 3.90681 10.5719 4.28126 10.7129ZM9.165 11.3597L16.3702 6.89988C16.4997 6.81996 16.633 6.99593 16.5218 7.09959L10.5754 12.6546C10.3663 12.8501 10.2315 13.1118 10.1933 13.3958L9.99077 14.9044C9.96394 15.1058 9.68239 15.1258 9.62709 14.9309L8.84804 12.1799C8.75882 11.8661 8.88884 11.531 9.165 11.3597Z" fill="#323232"/>
</svg>
