<svg width="23" height="22" viewBox="0 0 23 22" fill="none" xmlns="http://www.w3.org/2000/svg">
<path fill-rule="evenodd" clip-rule="evenodd" d="M4.90851 3.90986C3.74866 5.06971 3.74866 6.93646 3.74866 10.67V11.33C3.74866 15.0635 3.74866 16.9303 4.90851 18.0902C6.06837 19.25 7.93512 19.25 11.6687 19.25H12.3287C16.0622 19.25 17.9289 19.25 19.0888 18.0902C20.2487 16.9303 20.2487 15.0635 20.2487 11.33V10.67C20.2487 6.93646 20.2487 5.06971 19.0888 3.90986C17.9289 2.75 16.0622 2.75 12.3287 2.75H11.6687C7.93512 2.75 6.06837 2.75 4.90851 3.90986ZM6.53355 7.76878C6.62292 12.0588 8.76789 14.6369 12.5285 14.6369H12.7417V12.1825C14.1236 12.32 15.1685 13.3307 15.5879 14.6369H17.5404C17.0042 12.6844 15.5947 11.605 14.7147 11.1925C15.5947 10.6838 16.8322 9.44628 17.1279 7.76878H15.3541C14.9691 9.13003 13.828 10.3675 12.7417 10.4844V7.76878H10.9679V12.5263C9.86789 12.2513 8.47917 10.9175 8.4173 7.76878H6.53355Z" fill="#323232"/>
</svg>
