<svg width="23" height="22" viewBox="0 0 23 22" fill="none" xmlns="http://www.w3.org/2000/svg">
<path fill-rule="evenodd" clip-rule="evenodd" d="M12.1441 18.5879C16.4824 18.5879 19.9987 15.0985 19.9987 10.794C19.9987 6.48942 16.4827 3 12.1441 3C7.80595 3 4.28932 6.48942 4.28932 10.794C4.28932 12.2665 4.70123 13.6439 5.41644 14.8183L3.99866 19L8.34728 17.6181C9.47297 18.2359 10.7668 18.5879 12.1441 18.5879ZM15.8151 12.7818C15.9571 12.8554 16.053 12.9052 16.0943 12.9783C16.1447 13.0691 16.1447 13.5051 15.9761 14.0142C15.8062 14.5226 14.9775 15.0131 14.6056 15.0494C14.5419 15.0556 14.489 15.0694 14.4349 15.0834C14.1729 15.1514 13.88 15.2274 12.1697 14.505C10.2628 13.6989 9.00582 11.6983 8.74605 11.2849C8.72473 11.2509 8.71012 11.2277 8.70243 11.2167L8.7021 11.2162C8.59908 11.0693 7.87366 10.0348 7.87366 8.96415C7.87366 7.96144 8.33261 7.43556 8.54395 7.1934C8.55848 7.17675 8.57184 7.16145 8.5838 7.14742C8.7699 6.92952 8.98994 6.875 9.12525 6.875C9.19519 6.875 9.26518 6.87987 9.33281 6.88458C9.39603 6.88898 9.4572 6.89324 9.51434 6.89324C9.52853 6.89324 9.54344 6.8922 9.55898 6.89112C9.67338 6.88316 9.82206 6.8728 9.9709 7.25647C10.0251 7.39627 10.1036 7.60137 10.187 7.81914C10.3639 8.28081 10.5625 8.79939 10.5969 8.87335C10.6479 8.9826 10.6818 9.10969 10.6138 9.25502C10.6041 9.27593 10.5951 9.2957 10.5865 9.31461C10.5354 9.42734 10.4981 9.50944 10.411 9.61845C10.3774 9.66056 10.3426 9.70592 10.3079 9.75131C10.2378 9.84289 10.1676 9.93459 10.1064 9.99991C10.005 10.1084 9.89912 10.2261 10.0174 10.444C10.1358 10.6623 10.5433 11.375 11.1466 11.9523C11.7956 12.5732 12.3595 12.8357 12.645 12.9686C12.7006 12.9945 12.7456 13.0155 12.7787 13.0332C12.9818 13.1423 13.1001 13.124 13.2185 12.9783C13.3372 12.833 13.7263 12.3426 13.8614 12.1245C13.9965 11.9066 14.1322 11.9431 14.3183 12.0157C14.5039 12.0881 15.5021 12.6153 15.7052 12.7241C15.7444 12.7451 15.7811 12.7642 15.8151 12.7818Z" fill="#323232"/>
</svg>
